<?xml version="1.0" standalone="no"?>
<!DOCTYPE svg PUBLIC "-//W3C//DTD SVG 20010904//EN"
 "http://www.w3.org/TR/2001/REC-SVG-20010904/DTD/svg10.dtd">
<svg version="1.0" xmlns="http://www.w3.org/2000/svg"
 width="512.000000pt" height="512.000000pt" viewBox="0 0 512.000000 512.000000"
 preserveAspectRatio="xMidYMid meet">

<g transform="translate(0.000000,512.000000) scale(0.100000,-0.100000)"
fill="#000000" stroke="none">
<path d="M0 2560 l0 -2560 2560 0 2560 0 0 2560 0 2560 -2560 0 -2560 0 0
-2560z m1895 1639 c193 -110 356 -208 363 -217 9 -12 12 -177 12 -744 0 -400
3 -728 6 -728 3 0 129 71 280 158 l274 157 0 381 c0 289 3 384 13 396 6 8 171
106 365 218 l354 203 31 -15 c88 -43 684 -392 700 -410 16 -18 17 -54 17 -420
l0 -400 -27 -26 c-16 -15 -169 -108 -340 -206 l-313 -179 0 -379 0 -379 -22
-22 c-27 -26 -1381 -807 -1400 -807 -15 0 -1369 778 -1399 803 -19 16 -19 45
-19 1200 0 931 3 1187 13 1200 17 23 698 415 722 416 12 1 178 -89 370 -200z"/>
<path d="M1255 4115 c-148 -85 -271 -159 -273 -163 -3 -9 -18 1 290 -176 l257
-148 275 158 c152 87 276 161 276 164 0 5 -543 320 -551 320 -2 0 -125 -70
-274 -155z"/>
<path d="M3292 3730 c-150 -86 -275 -159 -277 -162 -5 -5 519 -308 544 -315
21 -5 565 307 554 318 -7 6 -487 285 -533 309 -10 5 -101 -42 -288 -150z"/>
<path d="M910 2748 l1 -1093 610 -350 c335 -192 614 -351 619 -353 6 -2 10
110 10 316 l0 320 -322 182 c-178 100 -331 189 -340 198 -17 14 -18 64 -18
786 l0 771 -275 158 c-151 86 -276 157 -279 157 -4 0 -6 -492 -6 -1092z"/>
<path d="M1863 3683 l-273 -158 0 -706 0 -707 280 161 280 161 0 703 c0 387
-3 703 -7 703 -5 0 -131 -71 -280 -157z"/>
<path d="M2950 3142 l0 -319 267 -154 c147 -85 273 -155 280 -157 10 -3 13 61
13 311 l0 315 -243 140 c-133 77 -259 150 -280 162 l-37 22 0 -320z"/>
<path d="M3903 3302 l-272 -157 -1 -317 c0 -175 2 -318 5 -318 7 0 463 262
518 296 l37 24 0 315 c0 173 -3 315 -7 314 -5 0 -130 -71 -280 -157z"/>
<path d="M2450 2469 c-239 -137 -517 -298 -618 -356 l-183 -105 273 -155 c150
-85 278 -156 284 -156 12 0 1234 695 1234 703 -1 4 -529 311 -548 317 -4 2
-203 -110 -442 -248z"/>
<path d="M2885 1941 l-610 -348 -3 -322 c-1 -176 0 -321 2 -321 2 0 280 159
617 353 l614 354 3 316 c1 175 -1 317 -5 317 -5 0 -282 -157 -618 -349z"/>
</g>
</svg>
